<svg xmlns="http://www.w3.org/2000/svg" viewBox="0 0 64 64" width="64" height="64">
  <defs>
    <linearGradient id="egyptianGrad" x1="0%" y1="0%" x2="100%" y2="100%">
      <stop offset="0%" style="stop-color:#00BCD4;stop-opacity:1" />
      <stop offset="100%" style="stop-color:#00838F;stop-opacity:1" />
    </linearGradient>
    <linearGradient id="goldGrad" x1="0%" y1="0%" x2="100%" y2="100%">
      <stop offset="0%" style="stop-color:#FFD700;stop-opacity:1" />
      <stop offset="100%" style="stop-color:#FF8F00;stop-opacity:1" />
    </linearGradient>
    <filter id="glow">
      <feGaussianBlur stdDeviation="1.5" result="coloredBlur"/>
      <feMerge>
        <feMergeNode in="coloredBlur"/>
        <feMergeNode in="SourceGraphic"/>
      </feMerge>
    </filter>
  </defs>
  
  <circle cx="32" cy="32" r="28" fill="url(#egyptianGrad)" opacity="0.05"/>
  <circle cx="32" cy="32" r="28" stroke="url(#egyptianGrad)" stroke-width="1" fill="none" opacity="0.3"/>
  
  <g filter="url(#glow)">
    <rect x="15" y="25" width="34" height="20" rx="2" stroke="#00BCD4" stroke-width="1.5" fill="none"/><path d="M20 30 h2 M25 30 h2 M30 30 h2 M35 30 h2 M40 30 h2" stroke="#FFD700" stroke-width="1"/>
  </g>
  
  <!-- Cyber Ornaments -->
  <path d="M10 10 L20 10 M10 10 L10 20" stroke="#FFD700" stroke-width="1" fill="none" opacity="0.6"/>
  <path d="M54 10 L44 10 M54 10 L54 20" stroke="#FFD700" stroke-width="1" fill="none" opacity="0.6"/>
  <path d="M10 54 L20 54 M10 54 L10 44" stroke="#FFD700" stroke-width="1" fill="none" opacity="0.6"/>
  <path d="M54 54 L44 54 M54 54 L54 44" stroke="#FFD700" stroke-width="1" fill="none" opacity="0.6"/>
</svg>